<svg xmlns="http://www.w3.org/2000/svg" viewBox="0 0 660 200" width="660" height="200" role="img" aria-label="Atlas Flight">
  <rect x="20" y="20" width="160" height="160" rx="36" ry="36" fill="#06346F"/>
  <g transform="translate(100.0 100.0) rotate(-22)">
    <path d="M -55 -28 L 55 0 L -16 0 Z" fill="#FFFFFF"/>
    <path d="M -16 0 L 55 0 L -44 28 Z" fill="#0A9CFF"/>
  </g>
  <path d="M225.216796875 130.40234375 229.33203125 117.384765625H250.49609375L254.611328125 130.40234375H269.98046875L249.404296875 69.59765625H230.423828125L209.763671875 130.40234375ZM232.775390625 106.466796875 239.662109375 84.630859375H240.166015625L247.052734375 106.466796875ZM298.810546875 84.798828125H290.49609375V73.880859375H276.38671875V84.798828125H270.255859375V95.212890625H276.38671875V117.720703125C276.302734375 126.958984375 282.349609375 131.07421875 292.34375 131.07421875C295.703125 131.07421875 298.0546875 130.73828125 299.3984375 130.5703125V119.736328125C297.802734375 119.8203125 295.53515625 119.98828125 294.359375 119.904296875C291.923828125 119.8203125 290.49609375 118.98046875 290.49609375 116.125V95.212890625H298.810546875ZM317.310546875 69.59765625H303.1171875V130.40234375H317.310546875ZM321.28125 117.720703125C321.28125 126.791015625 327.580078125 131.2421875 336.314453125 131.2421875C342.697265625 131.2421875 347.064453125 128.638671875 349.583984375 124.01953125H349.919921875V130.40234375H363.2734375V99.412109375C363.2734375 89.5859375 354.455078125 84.2109375 343.201171875 84.2109375C330.435546875 84.2109375 323.548828125 90.845703125 322.9609375 98.908203125H336.146484375C336.734375 95.884765625 339.0859375 94.2890625 342.865234375 94.2890625C346.728515625 94.2890625 349.080078125 96.052734375 349.080078125 99.244140625V102.939453125C347.1484375 103.0234375 341.4375 103.2333984375 338.162109375 103.443359375C329.091796875 104.03125 321.28125 107.642578125 321.28125 117.720703125ZM334.71875 117.1328125C334.71875 114.109375 336.986328125 112.177734375 340.513671875 111.7578125C342.61328125 111.5478515625 347.4423828125 111.337890625 349.1640625 111.25390625V114.193359375C349.248046875 118.728515625 345.384765625 121.8359375 340.59765625 121.8359375C337.154296875 121.8359375 334.71875 120.240234375 334.71875 117.1328125ZM395.2109375 98.908203125H408.396484375C407.80859375 89.837890625 400.333984375 84.2109375 388.072265625 84.2109375C375.7265625 84.2109375 368.0 89.5859375 368.083984375 98.65625C368.0 105.626953125 372.53515625 110.162109375 381.521484375 111.841796875L389.33203125 113.26953125C393.279296875 114.109375 395.04296875 115.369140625 395.126953125 117.384765625C395.04296875 119.904296875 392.439453125 121.416015625 388.576171875 121.416015625C384.376953125 121.416015625 381.521484375 119.65234375 381.017578125 116.376953125H366.908203125C367.83203125 125.447265625 375.474609375 131.2421875 388.4921875 131.2421875C400.837890625 131.2421875 409.404296875 125.1953125 409.48828125 115.873046875C409.404296875 109.23828125 405.037109375 105.291015625 395.966796875 103.52734375L387.31640625 101.84765625C383.369140625 101.091796875 382.025390625 99.6640625 382.109375 97.900390625C382.025390625 95.548828125 384.796875 93.953125 388.32421875 93.953125C392.103515625 93.953125 394.791015625 95.884765625 395.2109375 98.908203125Z" fill="#06346F"/>
  <path d="M429.775390625 130.40234375H444.052734375V105.794921875H468.32421875V94.12109375H444.052734375V81.271484375H471.01171875V69.59765625H429.775390625ZM489.51171875 69.59765625H475.318359375V130.40234375H489.51171875ZM495.58203125 130.40234375H509.775390625V84.798828125H495.58203125ZM502.720703125 79.33984375C506.751953125 79.33984375 510.111328125 76.31640625 510.111328125 72.537109375C510.111328125 68.7578125 506.751953125 65.734375 502.720703125 65.734375C498.689453125 65.734375 495.4140625 68.7578125 495.4140625 72.537109375C495.4140625 76.31640625 498.689453125 79.33984375 502.720703125 79.33984375ZM537.009765625 148.458984375C550.615234375 148.458984375 559.9375 142.244140625 559.9375 130.654296875V84.798828125H545.828125V92.609375H545.408203125C543.728515625 88.494140625 539.78125 84.2109375 532.474609375 84.2109375C522.900390625 84.2109375 514.25 91.517578125 514.25 107.474609375C514.25 122.84375 522.48046875 129.814453125 532.55859375 129.814453125C539.361328125 129.814453125 543.728515625 126.5390625 545.4921875 122.423828125H545.99609375V130.486328125C545.99609375 136.44921875 542.46875 138.548828125 537.345703125 138.548828125C532.89453125 138.548828125 529.787109375 137.12109375 529.19921875 133.845703125H515.42578125C516.09765625 142.49609375 523.908203125 148.458984375 537.009765625 148.458984375ZM537.345703125 119.400390625C531.88671875 119.400390625 528.779296875 114.94921875 528.779296875 107.474609375C528.779296875 100.16796875 531.802734375 95.296875 537.345703125 95.296875C542.888671875 95.296875 545.99609375 100.0 545.99609375 107.474609375C545.99609375 114.94921875 542.8046875 119.400390625 537.345703125 119.400390625ZM580.201171875 104.283203125C580.201171875 98.9921875 583.392578125 95.80078125 588.095703125 95.80078125C592.8828125 95.80078125 595.654296875 98.908203125 595.5703125 104.03125V130.40234375H609.763671875V101.34375C609.763671875 90.9296875 603.46484375 84.2109375 593.890625 84.2109375C587.087890625 84.2109375 582.30078125 87.5703125 580.201171875 93.11328125H579.697265625V69.59765625H566.0078125V130.40234375H580.201171875ZM641.11328125 84.798828125H632.798828125V73.880859375H618.689453125V84.798828125H612.55859375V95.212890625H618.689453125V117.720703125C618.60546875 126.958984375 624.65234375 131.07421875 634.646484375 131.07421875C638.005859375 131.07421875 640.357421875 130.73828125 641.701171875 130.5703125V119.736328125C640.10546875 119.8203125 637.837890625 119.98828125 636.662109375 119.904296875C634.2265625 119.8203125 632.798828125 118.98046875 632.798828125 116.125V95.212890625H641.11328125Z" fill="#0A9CFF"/>
</svg>
