<svg xmlns="http://www.w3.org/2000/svg" viewBox="0 0 600 140" width="600" height="140" role="img" aria-label="Atlas Flight">
  <path d="M100.7744140625 100.40234375 104.8896484375 87.384765625H126.0537109375L130.1689453125 100.40234375H145.5380859375L124.9619140625 39.59765625H105.9814453125L85.3212890625 100.40234375ZM108.3330078125 76.466796875 115.2197265625 54.630859375H115.7236328125L122.6103515625 76.466796875ZM174.3681640625 54.798828125H166.0537109375V43.880859375H151.9443359375V54.798828125H145.8134765625V65.212890625H151.9443359375V87.720703125C151.8603515625 96.958984375 157.9072265625 101.07421875 167.9013671875 101.07421875C171.2607421875 101.07421875 173.6123046875 100.73828125 174.9560546875 100.5703125V89.736328125C173.3603515625 89.8203125 171.0927734375 89.98828125 169.9169921875 89.904296875C167.4814453125 89.8203125 166.0537109375 88.98046875 166.0537109375 86.125V65.212890625H174.3681640625ZM192.8681640625 39.59765625H178.6748046875V100.40234375H192.8681640625ZM196.8388671875 87.720703125C196.8388671875 96.791015625 203.1376953125 101.2421875 211.8720703125 101.2421875C218.2548828125 101.2421875 222.6220703125 98.638671875 225.1416015625 94.01953125H225.4775390625V100.40234375H238.8310546875V69.412109375C238.8310546875 59.5859375 230.0126953125 54.2109375 218.7587890625 54.2109375C205.9931640625 54.2109375 199.1064453125 60.845703125 198.5185546875 68.908203125H211.7041015625C212.2919921875 65.884765625 214.6435546875 64.2890625 218.4228515625 64.2890625C222.2861328125 64.2890625 224.6376953125 66.052734375 224.6376953125 69.244140625V72.939453125C222.7060546875 73.0234375 216.9951171875 73.2333984375 213.7197265625 73.443359375C204.6494140625 74.03125 196.8388671875 77.642578125 196.8388671875 87.720703125ZM210.2763671875 87.1328125C210.2763671875 84.109375 212.5439453125 82.177734375 216.0712890625 81.7578125C218.1708984375 81.5478515625 223.0 81.337890625 224.7216796875 81.25390625V84.193359375C224.8056640625 88.728515625 220.9423828125 91.8359375 216.1552734375 91.8359375C212.7119140625 91.8359375 210.2763671875 90.240234375 210.2763671875 87.1328125ZM270.7685546875 68.908203125H283.9541015625C283.3662109375 59.837890625 275.8916015625 54.2109375 263.6298828125 54.2109375C251.2841796875 54.2109375 243.5576171875 59.5859375 243.6416015625 68.65625C243.5576171875 75.626953125 248.0927734375 80.162109375 257.0791015625 81.841796875L264.8896484375 83.26953125C268.8369140625 84.109375 270.6005859375 85.369140625 270.6845703125 87.384765625C270.6005859375 89.904296875 267.9970703125 91.416015625 264.1337890625 91.416015625C259.9345703125 91.416015625 257.0791015625 89.65234375 256.5751953125 86.376953125H242.4658203125C243.3896484375 95.447265625 251.0322265625 101.2421875 264.0498046875 101.2421875C276.3955078125 101.2421875 284.9619140625 95.1953125 285.0458984375 85.873046875C284.9619140625 79.23828125 280.5947265625 75.291015625 271.5244140625 73.52734375L262.8740234375 71.84765625C258.9267578125 71.091796875 257.5830078125 69.6640625 257.6669921875 67.900390625C257.5830078125 65.548828125 260.3544921875 63.953125 263.8818359375 63.953125C267.6611328125 63.953125 270.3486328125 65.884765625 270.7685546875 68.908203125Z" fill="#06346F"/>
  <path d="M305.3330078125 100.40234375H319.6103515625V75.794921875H343.8818359375V64.12109375H319.6103515625V51.271484375H346.5693359375V39.59765625H305.3330078125ZM365.0693359375 39.59765625H350.8759765625V100.40234375H365.0693359375ZM371.1396484375 100.40234375H385.3330078125V54.798828125H371.1396484375ZM378.2783203125 49.33984375C382.3095703125 49.33984375 385.6689453125 46.31640625 385.6689453125 42.537109375C385.6689453125 38.7578125 382.3095703125 35.734375 378.2783203125 35.734375C374.2470703125 35.734375 370.9716796875 38.7578125 370.9716796875 42.537109375C370.9716796875 46.31640625 374.2470703125 49.33984375 378.2783203125 49.33984375ZM412.5673828125 118.458984375C426.1728515625 118.458984375 435.4951171875 112.244140625 435.4951171875 100.654296875V54.798828125H421.3857421875V62.609375H420.9658203125C419.2861328125 58.494140625 415.3388671875 54.2109375 408.0322265625 54.2109375C398.4580078125 54.2109375 389.8076171875 61.517578125 389.8076171875 77.474609375C389.8076171875 92.84375 398.0380859375 99.814453125 408.1162109375 99.814453125C414.9189453125 99.814453125 419.2861328125 96.5390625 421.0498046875 92.423828125H421.5537109375V100.486328125C421.5537109375 106.44921875 418.0263671875 108.548828125 412.9033203125 108.548828125C408.4521484375 108.548828125 405.3447265625 107.12109375 404.7568359375 103.845703125H390.9833984375C391.6552734375 112.49609375 399.4658203125 118.458984375 412.5673828125 118.458984375ZM412.9033203125 89.400390625C407.4443359375 89.400390625 404.3369140625 84.94921875 404.3369140625 77.474609375C404.3369140625 70.16796875 407.3603515625 65.296875 412.9033203125 65.296875C418.4462890625 65.296875 421.5537109375 70.0 421.5537109375 77.474609375C421.5537109375 84.94921875 418.3623046875 89.400390625 412.9033203125 89.400390625ZM455.7587890625 74.283203125C455.7587890625 68.9921875 458.9501953125 65.80078125 463.6533203125 65.80078125C468.4404296875 65.80078125 471.2119140625 68.908203125 471.1279296875 74.03125V100.40234375H485.3212890625V71.34375C485.3212890625 60.9296875 479.0224609375 54.2109375 469.4482421875 54.2109375C462.6455078125 54.2109375 457.8583984375 57.5703125 455.7587890625 63.11328125H455.2548828125V39.59765625H441.5654296875V100.40234375H455.7587890625ZM516.6708984375 54.798828125H508.3564453125V43.880859375H494.2470703125V54.798828125H488.1162109375V65.212890625H494.2470703125V87.720703125C494.1630859375 96.958984375 500.2099609375 101.07421875 510.2041015625 101.07421875C513.5634765625 101.07421875 515.9150390625 100.73828125 517.2587890625 100.5703125V89.736328125C515.6630859375 89.8203125 513.3955078125 89.98828125 512.2197265625 89.904296875C509.7841796875 89.8203125 508.3564453125 88.98046875 508.3564453125 86.125V65.212890625H516.6708984375Z" fill="#0A9CFF"/>
</svg>
